<svg version="1" xmlns="http://www.w3.org/2000/svg" width="933.333" height="933.333" viewBox="0 0 700.000000 700.000000"><path d="M315.5 1.6C156.6 17.3 28 139.2 4 296.9-2 336.3-1.1 379 6.6 418c20.6 104.8 89.5 195.7 184.9 244.1 96.7 49 210 50.6 308.2 4.4 89.8-42.3 159.6-124.3 186.8-219.8 45.7-160.4-26.8-329.5-174.8-407.2C452.5 8.4 382.8-5 315.5 1.6zm46.9 78.2c11.9 6.1 22.4 14.1 31.8 24 7.3 7.8 15.2 18.6 17.8 24.4 1.2 2.6 1.4 2.6 13 3 16.9.4 16-1 16 24.4v20.3l-2.6 2c-1.5 1.2-3.8 2.1-5.1 2.1-2.3 0-2.5.3-2 3.2 1.4 8.2 2.9 20.9 2.6 21.3-.2.2-1.6.6-3 1-2.6.6-2.6.5-3.3-5.7-1.2-10.8-5.4-30.1-9-41.1-11.3-34.5-30.8-58.8-58.8-73.3-10.6-5.4-10.7-5.4-23.3 1.9-37.6 21.6-58.2 59.7-65 119.8-2.9 25.1-4.5 40.4-4.7 44.9-.3 3.8-.7 4.7-3.1 5.8-1.6.8-3 1.2-3.3 1-.9-1 5.3-57.8 8.3-75.6.5-2.9.3-3.2-2-3.2-1.3 0-3.6-.9-5.1-2.1l-2.6-2v-20.3c0-25.4-.9-24 16-24.4 11.6-.4 11.8-.4 13-3 4.9-10.8 20.7-29 33.3-38.4 10-7.4 27.2-16.1 30.1-15.2 1.1.3 6.1 2.7 11 5.2zm-9.9 102.1v48.5l-2.7.7-2.8.7v-48.7c0-26.8.3-49.1.7-49.5.4-.4 1.6-.6 2.8-.4 2 .3 2 .7 2 48.7zm-18.1-38.3c2.1 2 2 2.7-.3 4.8-1.5 1.4-2.4 1.5-4 .6-2.6-1.3-2.7-4.5-.3-5.9 2.3-1.4 2.8-1.4 4.6.5zm35.7-.6c2.5 1.4 2.4 4.6-.2 6-1.6.9-2.5.8-4-.6-2.3-2.1-2.4-2.8-.3-4.8 1.8-1.9 2-1.9 4.5-.6zM577 211v34l-2.7 1.1c-7.1 2.7-6.9 2.9-15.7-15.9l-8.1-17.3-.5 20.7-.5 20.7-3.5 1.3c-7.6 2.7-7 5.3-7-32.5v-33.9l2.8-1c8-3.2 7.1-4.1 15.8 14.9l7.9 17.2.3-20.1.2-20 4.3-1.5c2.3-.9 4.8-1.6 5.5-1.6.9-.1 1.2 7.3 1.2 33.9zm-242.1-27.1c1.3 2.4-.8 5.5-3.4 5-2.8-.6-4.2-3.4-2.6-5.3 1.8-2.2 4.8-2 6 .3zm36.2-.3c.9 1.1 1 2 .2 3.2-1.5 2.4-4.4 2.7-5.9.7-2.8-3.8 2.7-7.5 5.7-3.9zm146.3 18.6c.9 2.9 4.5 16.1 8.1 29.3 3.6 13.2 6.8 24.7 7.1 25.7.4 1.2-.7 2-4.7 3.3-5.9 2-6.3 1.7-7.3-4.9-1.1-6.7-1.4-6.9-8.7-4.5-3.5 1.2-6.9 2.7-7.6 3.3-.6.6-1.7 4.2-2.5 8l-1.3 6.9-5.3 1.8c-2.8 1-5.2 1.4-5.2.9 0-.8 15.7-68.3 16.6-71.1.4-1.5 4.9-3.5 8.1-3.8.7-.1 1.9 2.3 2.7 5.1zM484 240.4v34.4l-4.7 1.6c-2.6.9-5 1.6-5.5 1.6s-.7-15.4-.6-34.2l.3-34.1 5-1.8c2.8-1 5.1-1.8 5.3-1.8.1-.1.2 15.4.2 34.3zM461.3 281c-1 .8-9.4 3.3-9.7 2.8-.2-.2-3.8-7.9-8.2-17.2l-7.9-17-.3 20.1-.2 20.1-4.7 1.6c-2.6.9-5 1.6-5.5 1.6-.4 0-.8-15.2-.8-33.8v-33.8l5.2-1.7c2.9-.9 5.2-1.5 5.3-1.4.1.1 3.7 8 8.1 17.5l7.9 17.4.5-20.4.5-20.3 5-1.7 5-1.6.3 33.6c.1 18.5-.1 33.9-.5 34.2zm-52.2-46c3.2 1.8 4.9 6.4 4.9 13.5 0 7.6-1.8 12.7-6.1 17.1l-2.9 3 5.9 13.5 5.9 13.4-3 1.3c-1.7.7-4.3 1.5-5.8 1.8-2.7.6-2.8.3-7.4-11.3-2.6-6.5-5.1-12.1-5.5-12.6-.4-.4-2.2-.2-3.9.4l-3.2 1.1V305l-2.7 1.1c-1.6.6-4 1.3-5.6 1.6l-2.7.6.2-33.9.3-33.8 10-3.2c10.3-3.3 18.2-4.2 21.6-2.4zm-45.6 14.4c1.3.9 2.9 3.3 3.4 5.3 1.5 5.1 1.4 40.2 0 45.9-1.5 5.7-8.3 13.4-14.4 16.3-8 3.8-17.3 2.4-20.1-3-2-3.9-2-45.4-.1-50.2 5.3-12.5 22.1-20.2 31.2-14.3zM323.3 267c-.4.4-5.4 2.3-11 4l-10.3 3.3V295l2.8-.6c1.5-.4 5.8-1.8 9.5-3l6.8-2.3-.3 4.6-.3 4.7-9.2 3-9.3 3v29.5l-4.1 1.1c-2.2.6-4.7 1.4-5.5 1.7-1.2.4-1.4-4.1-1.2-33.8l.3-34.3 16-5.1 16-5.1.3 3.9c.2 2.2 0 4.3-.5 4.7zm232.4 57.9l-8.2 51.4-7.3 2.5c-4 1.3-7.5 2.2-7.8 2-.3-.4-12.4-59.2-12.4-60.7 0-.2-.2-.2-.5.1-.4.4-12.5 67-12.5 68.9 0 .7-14.9 5.4-15.4 4.8-.4-.5-16.6-92.8-16.6-94.6 0-1 15.7-6.9 16.5-6.2.2.2 2 13.2 4 28.9s3.9 29.3 4.3 30.3c.4 1.1 3.3-12.2 7-32 3.5-18.6 6.6-34.1 7-34.4 1-.9 11.3-4.2 11.7-3.8.2.2 3.1 13.4 6.5 29.4 3.4 15.9 6.5 29.6 6.9 30.3.4.7 2.4-14 4.5-32.5 2.1-18.6 4-34 4.3-34.3.2-.3 3.9-1.7 8.1-3.1 7.7-2.6 7.7-2.6 7.9-.5.2 1.2-3.4 25.2-8 53.5zM280 306.3v34.4l-4.1 1.2c-2.3.7-4.7 1.5-5.5 1.8-1.2.4-1.4-4.6-1.2-33.8l.3-34.3 4.5-1.8c2.5-.9 4.8-1.7 5.3-1.7.4-.1.7 15.4.7 34.2zm-41 8.7c0 15.9.3 29 .8 29 .4 0 4.8-1.3 9.7-3 5-1.6 9.6-3 10.3-3 .9 0 1.2 1.3 1 4.6l-.3 4.6-15 4.9c-8.2 2.7-15.6 4.9-16.2 4.9-1 0-1.3-7.4-1.3-33.9v-33.9l4.3-1.5c2.3-.9 4.8-1.6 5.5-1.6.9-.1 1.2 6.3 1.2 28.9zm-24.8 12.7l8.5 30.8-5 1.7c-2.7 1-5.3 1.6-5.7 1.3-.4-.2-1.3-3.2-1.9-6.5-.7-3.3-1.5-6-2-6-.4 0-3.8 1.1-7.7 2.3l-6.9 2.4-1.7 7.3c-.9 4-2.1 7.6-2.5 8-1.3 1.2-8.4 3.2-9 2.6-.4-.3 3.2-16.8 7.8-36.5l8.3-35.9 3.1-1c6.3-2 5.6-3.4 14.7 29.5zm244.2-17.9c1.6.9 3.8 3 5 4.5 2 2.8 2.1 3.8 2.1 37.5v34.7l-2.5 5c-9.3 19-36.5 28.8-46.9 16.9-1.7-1.9-3.3-4.5-3.6-5.7-.3-1.2-.5-17.3-.3-35.7l.3-33.5 3-5.3c8.8-16 30.8-25.4 42.9-18.4zm-290 1.2c3.4 1.3 6.6 6.6 6.6 11.1 0 3.3-.3 3.7-4.1 4.8-2.3.7-4.7 1.5-5.5 1.8-1 .4-1.4-.3-1.4-2.4 0-3.5-1.6-5.3-4.8-5.3-3.6 0-6.2 1.8-7.8 5.5-1.7 4.1-2 38.7-.4 42.9 1.2 3.2 4.2 3.4 8.7.6 3.1-1.8 3.9-3.4 4.5-8.9.2-1.9 1.3-2.8 5.6-4.2l5.2-1.8v3.8c0 4.7-4.2 13.3-8.3 16.7-8.8 7.4-20.8 8.6-25.4 2.5-.9-1.2-1.2-8.4-1.3-25.9 0-22.2.2-24.6 2-28.1 4.8-9.6 18.3-16.2 26.4-13.1zm221.5 20.5c4.7 2.4 7.4 7.8 7.5 14.8l.1 6-7.5 2.3c-4.1 1.3-7.8 2.4-8.2 2.4-.5 0-.8-1.9-.8-4.2 0-7.4-5.5-10-12.9-6-6.8 3.7-7.1 5.1-7.1 38.7 0 25.6.2 30.4 1.6 32.3 1.9 2.8 6.1 2.9 11.4.2 4.8-2.4 7-6.4 7-12.4v-4.4l7.8-2.6c4.2-1.4 8-2.6 8.5-2.6 1.2 0 .8 7.4-.8 12.6-5.8 19.6-32.7 33.4-46.4 23.8-4.8-3.4-5.1-5.8-5.1-42.2v-33.9l3-6.1c7.8-15.5 29.4-25.2 41.9-18.7zm-65.6 19.9c6.1 2.6 8.1 5.9 8.5 13.9l.4 7.2-6.9 2.3c-9 2.9-9.3 2.8-9.3-1.2 0-1.9-.9-4.5-2.2-6.1-1.8-2.4-2.6-2.7-6.1-2.2-4.7.6-8.3 3.1-11.4 7.7-2.9 4.2-3.3 15.9-.7 18.1 1 .9 6.7 1.8 14.9 2.5 14.8 1.2 17.7 2.3 20.1 7.9 1.9 4.6 1.9 21.6-.1 28.1-3.3 11.1-11.9 19.6-24.3 24-16.8 5.9-29.2-.1-29.2-14.3v-5.1l6.8-2.3c3.7-1.2 7.3-2.4 8-2.7.8-.3 1.2.8 1.2 3.7 0 4.9 2.7 8.1 6.8 8.1 3.7-.1 10.2-3.2 13.2-6.4 2.2-2.5 2.5-3.8 2.8-11.9.5-13 .6-12.9-15.6-14.3-17.4-1.4-20.6-3.6-22.1-14.8-2.1-15.5 5.1-30.4 18.7-38.3 8.6-5.1 19.9-6.7 26.5-3.9zM257 373.8c1.9.9 4.5 3.4 5.7 5.7 2.3 4 2.3 4.2 2.1 38l-.3 34-3 5.3c-6.2 11.3-19.1 19.9-31.3 20.9-5.8.4-7.3.1-11.1-1.9-8-4.3-8.1-4.6-8.1-41.9 0-36.4.2-37.7 6.8-46.3 4.2-5.6 12.5-11.6 19.2-13.9 6.2-2.2 15.6-2.1 20 .1zm-61 65v50.8l-6.8 2.2c-11.3 3.6-10.2 6.5-10.3-28.1v-30.2l-8 24.2c-7.7 23.5-8 24.1-11.1 25.2-4.8 1.7-5.5 1.4-7.2-3-.9-2.3-4.5-10.7-7.9-18.8l-6.2-14.6-.5 30.9-.5 30.9-6.9 2.4c-3.9 1.2-7.4 2.3-7.8 2.3-.4 0-.8-22.8-.8-50.8v-50.7l6.3-1.9c3.4-1 6.9-2 7.7-2.3 1.2-.3 4.1 5.4 12 23.1 5.8 12.9 10.8 22.9 11.1 22.3.4-.7 5.1-14 10.4-29.7 5.4-15.7 10.2-29 10.7-29.5.9-1 12.3-5.3 14.6-5.4.9-.1 1.2 10.7 1.2 50.7zm241.6-6.6c-.3 1.3-.8 7-1.1 12.8-.4 5.8-1.5 19.5-2.6 30.5-2.4 25.3-2.4 25.5 0 25.5 1 0 3 .9 4.5 2.1l2.6 2v20.3c0 23.7.2 23.3-9.5 23.8l-5.9.3-2.3 14c-3 18.4-6.8 38.4-10 51.9l-2.5 10.9-10.2-.6c-16.1-.8-29-6.3-43.2-18.3-3.5-3-7-5.4-7.7-5.4-.8 0-2.2.9-3.3 2.1-3.3 3.7-14.8 11.7-21.9 15.3-8.8 4.4-17.8 6.6-27.7 6.6h-7.6l-2.5-10.8c-3.2-13.3-7-33.4-10-51.7l-2.3-14-5.9-.3c-9.7-.5-9.5-.1-9.5-23.8v-20.3l2.6-2c1.5-1.2 3.6-2.1 4.7-2.1 1.9 0 1.9-.4 1.3-8.7-.8-8.9-.3-10.2 3.5-10.3 1.3 0 1.8 2.1 2.8 12.2 4 40.2 13.5 100.7 19.2 122.2l1.1 3.9 7.1-.6c13.1-1.1 25.3-6.8 39-18.1l6.7-5.6V458.2l3-1.1 3-1v139.7l6.8 5.7c13.5 11.3 25.8 17.1 38.9 18.2l7.1.6 1.1-3.9c8.4-32.2 18.9-108 23.2-167.7 1.2-15.6 1.4-17 3.3-17.7 3.6-1.5 4.7-1.2 4.2 1.2zm-103.2 37.4c2.1 2 2 2.7-.3 4.8-3.6 3.3-8.3-1.8-4.9-5.2 1.6-1.6 3.3-1.5 5.2.4zm36.4-.4c1.8 1.8 1.4 4.6-.9 5.8-1.6.9-2.5.8-4-.6-2.3-2.1-2.4-2.8-.3-4.8 1.9-1.9 3.6-2 5.2-.4zm-35.9 40.7c1.3 2.4-.8 5.5-3.4 5-2.8-.6-4.2-3.4-2.6-5.3 1.8-2.2 4.8-2 6 .3zm36.2-.3c.9 1.1 1 2 .2 3.2-1.5 2.4-4.4 2.7-5.9.7-2.8-3.8 2.7-7.5 5.7-3.9z"/><path d="M510.8 219.5c-1.3 3.9-5 23.7-4.5 24.1.3.3 9.3-2.3 10.4-3 .1-.1-1.1-5.3-2.6-11.6-1.8-7.6-2.9-10.8-3.3-9.5zM396.5 243.7c-1.1.3-3.5.9-5.2 1.4l-3.3 1.1v10.4c0 11.8.1 11.9 7.7 8.5 4.9-2.3 7-5.1 7.8-10.6 1.1-7.6-1.6-11.8-7-10.8zM344.9 260.9l-2.9 2.9v21.4c0 15.3.3 21.7 1.2 22.6 2.3 2.3 6.8 1.4 10.4-2.2l3.4-3.4v-20.9c0-14.9-.3-21.2-1.2-22.1-2.3-2.3-7.7-1.4-10.9 1.7zM198.2 329.3c-3 15.7-3.2 14.8 2.8 12.9 2.8-.9 5-2.1 5-2.8 0-2.2-4.2-19.9-4.9-20.6-.4-.5-1.7 4.3-2.9 10.5zM435.2 325c-1.8 1.1-4.1 3.4-5.2 5.2-1.9 3.1-2 5.1-2 34 0 34.6-.2 33.8 7.3 33.8 5.3 0 11.3-3.9 13.3-8.6 2.2-5.2 2-61-.2-64.2-2-2.9-8.6-3-13.2-.2zM234.2 389.6c-7.2 4.3-7.2 4.4-7.2 38.7 0 32.9.1 33.2 5.5 34.2 4 .8 11.3-3 14.2-7.4 2.3-3.3 2.3-3.9 2.3-33.7 0-29.1-.1-30.5-2-32.4-2.7-2.7-7.6-2.5-12.8.6z"/></svg>