<?xml version="1.0" encoding="UTF-8"?>
<svg width="512px" height="512px" viewBox="0 0 512 512" version="1.1" xmlns="http://www.w3.org/2000/svg" xmlns:xlink="http://www.w3.org/1999/xlink">
    <g stroke="none" stroke-width="1" fill="none" fill-rule="evenodd">
        <circle id="Oval" fill="#000000" cx="256" cy="256" r="256"></circle>
        <path d="M320.214937,314.177438 C319.042193,331.892575 317.52249,349.528955 315.700865,366.433505 L317.508197,366.430638 C320.541236,366.430638 323,368.996361 323,372.161341 L323,396.297395 C323,399.462375 320.541236,402.028098 317.508197,402.028098 L311.246246,402.031117 C308.346436,422.095241 304.995111,440.131092 301.290185,454.71884 L301.048059,455.665311 L300.522381,457.668276 L300.497597,457.672328 C285.72866,459.285191 273.734172,455.032198 259.589882,442.951455 L259.07144,442.50598 L255.991997,439.826907 L253.490189,442.017375 L252.921321,442.512299 C238.904492,454.629089 227.036325,459.083019 212.601561,457.781929 L212.059045,457.730444 L211.476742,457.669445 L210.951941,455.665311 C207.150924,440.914735 203.716805,422.532499 200.754015,402.032926 L194.491803,402.028098 C191.458764,402.028098 189,399.462375 189,396.297395 L189,372.161341 C189,368.996361 191.458764,366.430638 194.491803,366.430638 L196.298896,366.431292 C195.836559,362.140762 195.393672,357.80309 194.970971,353.428954 L199.46284,352.022177 C203.051434,389.560882 208.147794,424.526886 214.328942,450.119447 L214.870853,452.327899 L215.131155,453.354 L215.427918,453.368912 C227.109259,453.850738 236.991509,449.911067 248.750973,440.019046 L249.295064,439.558259 L249.877277,439.058417 L250.435224,438.573025 L253.5,435.889 L253.5,335.085 L258.5,333.518 L258.5,435.907 L262.10427,439.042374 C274.164471,449.466935 284.160599,453.721985 295.960738,453.390125 L296.498364,453.371887 L296.86769,453.354 L297.118056,452.371589 C305.521998,418.677794 311.996352,367.548268 315.487857,315.659002 L320.214937,314.177438 Z M242.677011,371.312292 C244.250706,371.312292 245.526437,372.543881 245.526437,374.063123 C245.526437,375.582365 244.250706,376.813953 242.677011,376.813953 C241.103317,376.813953 239.827586,375.582365 239.827586,374.063123 C239.827586,372.543881 241.103317,371.312292 242.677011,371.312292 Z M269.322989,371.312292 C270.896683,371.312292 272.172414,372.543881 272.172414,374.063123 C272.172414,375.582365 270.896683,376.813953 269.322989,376.813953 C267.749294,376.813953 266.473563,375.582365 266.473563,374.063123 C266.473563,372.543881 267.749294,371.312292 269.322989,371.312292 Z M143.220444,283.544857 L143.220444,358.180857 L131.199111,362.072457 L131.199111,316.689257 L130.962667,316.764457 L119.059556,352.691257 L113.042667,354.64019 L101.257778,326.377524 L101.021333,326.452724 L101.021333,371.84219 L89,375.73379 L89,301.09779 L100.548444,297.35659 L115.992,331.879657 L116.228444,331.804457 L131.547556,287.323657 L143.220444,283.544857 Z M181.192334,271.733164 C183.569611,271.72699 185.736946,272.139093 187.681991,272.963299 C189.559114,273.893653 191.078101,275.311037 192.251303,277.227941 C193.418329,279.144844 193.998756,281.604975 193.998756,284.602088 L193.998756,323.870512 C193.998756,327.004993 193.418329,329.870982 192.251303,332.480968 C191.078101,335.090954 189.559114,337.426205 187.681991,339.499208 C185.736946,341.665871 183.569611,343.520335 181.192334,345.056355 C178.815057,346.592376 176.413081,347.753757 174.00493,348.540499 C171.58443,349.327241 169.182454,349.726856 166.805177,349.733164 C164.421726,349.739344 162.303788,349.283533 160.43284,348.35318 C158.481621,347.528973 156.925585,346.192761 155.752383,344.344541 C154.585356,342.490077 153.998756,340.004971 153.998756,336.87049 L153.998756,297.602065 C153.998756,294.604952 154.585356,291.770183 155.752383,289.091513 C156.925585,286.412843 158.481621,283.990177 160.43284,281.823514 C162.303788,279.756755 164.421726,277.952243 166.805177,276.409979 C169.182454,274.873958 171.58443,273.706333 174.00493,272.919591 C176.413081,272.132849 178.815057,271.745722 181.192334,271.733164 Z M242.677011,342.428571 C244.250706,342.428571 245.526437,343.66016 245.526437,345.179402 C245.526437,346.698644 244.250706,347.930233 242.677011,347.930233 C241.103317,347.930233 239.827586,346.698644 239.827586,345.179402 C239.827586,343.66016 241.103317,342.428571 242.677011,342.428571 Z M269.322989,342.428571 C270.896683,342.428571 272.172414,343.66016 272.172414,345.179402 C272.172414,346.698644 270.896683,347.930233 269.322989,347.930233 C267.749294,347.930233 266.473563,346.698644 266.473563,345.179402 C266.473563,343.66016 267.749294,342.428571 269.322989,342.428571 Z M174.00493,283.57183 C171.81907,284.283644 169.923424,285.51371 168.330339,287.249537 C166.724906,288.985365 165.928363,291.145784 165.928363,293.718306 L165.928363,332.992975 C165.928363,335.571741 166.724906,337.207665 168.330339,337.906992 C169.923424,338.600074 171.81907,338.600074 174.00493,337.88826 C176.184615,337.18269 178.074087,335.952624 179.673346,334.216796 C181.266431,332.480968 182.069148,330.326793 182.069148,327.748027 L182.069148,288.479603 C182.069148,285.900837 181.266431,284.258668 179.673346,283.559342 C178.074087,282.86626 176.184615,282.86626 174.00493,283.57183 Z M232.226172,255.77333 C234.687038,255.953602 236.807834,256.544146 238.60711,257.563611 C242.199479,259.726868 243.998756,262.95932 243.998756,267.260968 L243.998756,272.457757 L232.046863,276.318051 L232.046863,273.924793 C232.046863,271.500454 231.403823,269.610713 230.111559,268.261785 C228.825479,266.906642 226.661401,266.72637 223.619326,267.708539 C221.974626,268.23692 220.651447,268.945573 219.637422,269.828281 C218.623397,270.71099 217.801048,271.668293 217.176557,272.700191 C216.545883,273.806684 216.11925,274.962908 215.884293,276.18751 C215.649336,277.405896 215.531858,278.636714 215.531858,279.886181 C215.531858,281.340785 215.593688,282.540522 215.711167,283.466744 C215.822462,284.405398 216.11925,285.176214 216.589164,285.785407 C217.059078,286.394599 217.739217,286.835954 218.635764,287.097036 C219.53231,287.364335 220.762743,287.519741 222.327062,287.569472 L231.465653,287.842987 C234.118195,287.886501 236.269906,288.25326 237.908422,288.930831 C239.546938,289.614619 240.833019,290.603004 241.772847,291.895985 C242.632295,293.282209 243.219688,294.979247 243.528842,296.993313 C243.844179,299.00738 243.998756,301.36334 243.998756,304.067411 C243.998756,307.18797 243.64632,310.196638 242.947632,313.093412 C242.236578,315.990187 241.105074,318.625879 239.546938,321.000488 C237.908422,323.474557 235.756711,325.687544 233.10417,327.658096 C230.451628,329.622433 227.205512,331.226226 223.384369,332.463261 C220.490687,333.395699 217.801048,333.818404 215.303084,333.718944 C212.798937,333.6257 210.653408,333.072454 208.854132,332.059204 C207.061039,331.045955 205.632747,329.653514 204.581624,327.875665 C203.5305,326.104033 202.998756,323.971857 202.998756,321.472923 L202.998756,317.525602 L214.950648,313.659091 L214.950648,316.991004 C214.950648,318.936691 215.593688,320.472106 216.879769,321.615897 C218.172033,322.759688 220.33611,322.840499 223.384369,321.858331 C225.412419,321.199408 226.995287,320.428592 228.126791,319.539668 C229.258294,318.663176 230.136291,317.631278 230.760782,316.456406 C231.385273,315.28775 231.762441,314.000985 231.873737,312.614761 C231.991215,311.22232 232.046863,309.699337 232.046863,308.033381 C232.046863,306.09391 231.966483,304.521197 231.818089,303.32146 C231.657329,302.127939 231.348175,301.220366 230.878261,300.611173 C230.327967,300.026845 229.61073,299.641438 228.714183,299.442517 C227.811453,299.249814 226.618119,299.113056 225.140363,299.032245 L216.589164,298.677918 C211.438659,298.472782 207.982318,297.111422 206.226323,294.593839 C204.464145,292.076256 203.586148,288.50191 203.586148,283.852151 C203.586148,281.079702 204.018964,278.307252 204.872229,275.534803 C205.731677,272.756137 207.02394,270.19504 208.736653,267.832864 C210.381352,265.501768 212.471233,263.394458 215.006296,261.492284 C217.541358,259.602543 220.571067,258.079561 224.083057,256.948202 C227.050935,255.990899 229.765307,255.599275 232.226172,255.77333 Z M285.446044,242.454862 C287.174247,243.493871 288.53435,244.949728 289.520112,246.816211 C290.505874,248.682694 290.998756,250.903809 290.998756,253.473334 L290.998756,257.635591 L278.945004,261.499212 L278.945004,257.959115 C278.945004,255.874876 278.271192,254.288365 276.936046,253.193362 C275.59466,252.098358 273.779111,251.91171 271.501875,252.64586 C268.500915,253.603988 266.516913,255.059845 265.524911,257.007209 C264.545388,258.948351 264.052507,261.169466 264.052507,263.670554 L264.052507,301.55394 C264.052507,303.706617 264.589061,305.336679 265.649691,306.456569 C266.710322,307.570237 268.619456,307.688448 271.383334,306.804979 C272.163209,306.549893 273.011713,306.157932 273.922608,305.622873 C274.827263,305.087815 275.669528,304.415881 276.461881,303.613293 C277.173128,302.82937 277.759594,301.877464 278.233758,300.751352 C278.707922,299.631462 278.945004,298.337367 278.945004,296.88151 L278.945004,293.241868 L290.998756,289.378248 L290.998756,293.957353 C290.998756,296.246906 290.505874,298.573788 289.520112,300.931779 C288.53435,303.295991 287.174247,305.554435 285.446044,307.707113 C283.711602,309.85979 281.683926,311.769824 279.363017,313.455881 C277.03587,315.135715 274.53403,316.404924 271.851259,317.263506 C269.567785,317.997656 267.240637,318.464277 264.876055,318.66959 C262.517713,318.874903 260.390213,318.582488 258.499795,317.798565 C256.609378,317.014642 255.049627,315.726768 253.826783,313.934945 C252.610178,312.143121 251.998756,309.548709 251.998756,306.145488 L251.998756,265.350388 C251.998756,262.92396 252.466681,260.516197 253.415009,258.127099 C254.363337,255.744222 255.698484,253.510664 257.439165,251.432646 C259.167369,249.348406 261.232478,247.488145 263.640733,245.851861 C266.042749,244.215578 268.700563,242.927704 271.620416,241.988241 C277.28543,240.171531 281.902291,240.327071 285.446044,242.454862 Z M328.192334,224.733164 C330.569611,224.72699 332.736946,225.139093 334.681991,225.969543 C336.559114,226.893653 338.078101,228.311037 339.251303,230.227941 C340.418329,232.151088 340.998756,234.604975 340.998756,237.602088 L340.998756,276.870512 C340.998756,280.004993 340.418329,282.870982 339.251303,285.480968 C338.078101,288.090954 336.559114,290.426205 334.681991,292.499208 C332.736946,294.672115 330.569611,296.520335 328.192334,298.056355 C325.815057,299.59862 323.413081,300.760001 321.00493,301.540499 C318.58443,302.327241 316.182454,302.726856 313.805177,302.733164 C311.4279,302.739344 309.303788,302.283533 307.43284,301.359424 C305.481621,300.528973 303.925585,299.192761 302.752383,297.344541 C301.585356,295.490077 300.998756,293.004971 300.998756,289.87049 L300.998756,250.602065 C300.998756,247.604952 301.585356,244.770183 302.752383,242.091513 C303.925585,239.412843 305.481621,236.990177 307.43284,234.823514 C309.303788,232.756755 311.4279,230.952243 313.805177,229.409979 C316.182454,227.873958 318.58443,226.706333 321.00493,225.919591 C323.413081,225.139093 325.815057,224.745722 328.192334,224.733164 Z M321.00493,236.578074 C318.81907,237.283644 316.923424,238.51371 315.330339,240.249537 C313.73108,241.985365 312.928363,244.145784 312.928363,246.718306 L312.928363,285.992975 C312.928363,288.571741 313.73108,290.207665 315.330339,290.906992 C316.923424,291.606318 318.81907,291.600074 321.00493,290.894504 C323.184615,290.18269 325.074087,288.958868 326.673346,287.216796 C328.266431,285.480968 329.069148,283.326793 329.069148,280.748027 L329.069148,241.479603 C329.069148,238.900837 328.266431,237.258668 326.673346,236.559342 C325.074087,235.86626 323.184615,235.86626 321.00493,236.578074 Z M412.998756,196.733164 L400.527879,275.415725 L389.230806,279.081937 L380.057756,233.627169 L379.821754,233.696106 L370.766705,285.073218 L359.463421,288.733164 L346.998756,218.141338 L359.699424,214.017632 L365.70507,259.4536 L365.941072,259.378395 L375.350125,208.941338 L384.529385,205.964499 L394.292441,251.337796 L394.528444,251.262591 L400.291877,200.850602 L412.998756,196.733164 Z M124.29681,227.903922 C125.450583,228.606364 126.35756,229.597309 127.01774,230.864213 C127.67175,232.13739 127.998756,233.642623 127.998756,235.386184 L127.998756,238.22104 L119.965533,240.842654 L119.965533,238.440553 C119.965533,237.023125 119.51513,235.944375 118.626663,235.19803 C117.732026,234.451685 116.522723,234.326249 114.998756,234.827994 C112.999705,235.480261 111.679344,236.464934 111.019164,237.788285 C110.365153,239.111636 110.038148,240.62314 110.038148,242.316528 L110.038148,268.062283 C110.038148,269.523613 110.389833,270.633723 111.099373,271.392611 C111.808912,272.151499 113.086084,272.226761 114.924717,271.63094 C115.442989,271.455329 116.010621,271.191913 116.615272,270.828149 C117.219923,270.464384 117.781385,270.006542 118.305827,269.460895 C118.78091,268.927792 119.175785,268.281796 119.49045,267.516636 C119.805115,266.757748 119.965533,265.879695 119.965533,264.88875 L119.965533,262.411388 L127.998756,259.789774 L127.998756,262.900588 C127.998756,264.455996 127.67175,266.03649 127.01774,267.642072 C126.35756,269.247654 125.450583,270.784246 124.29681,272.245576 C123.143037,273.706907 121.791826,275.00517 120.243179,276.15291 C118.688362,277.294379 117.022486,278.153616 115.239382,278.736893 C113.715414,279.238638 112.160597,279.552228 110.58727,279.690208 C109.007773,279.828187 107.594864,279.633761 106.336202,279.10693 C105.071371,278.573827 104.034826,277.695774 103.220398,276.479044 C102.40597,275.256042 101.998756,273.493665 101.998756,271.185641 L101.998756,243.457996 C101.998756,241.808511 102.313421,240.177842 102.942752,238.553445 C103.578252,236.929048 104.466719,235.417543 105.626663,234.000115 C106.780436,232.58896 108.156326,231.322055 109.760502,230.211946 C111.364679,229.095565 113.135443,228.223784 115.078964,227.58406 C118.861119,226.348515 121.933734,226.461407 124.29681,227.903922 Z M150.375359,216.733164 L162.998756,262.475799 L154.90237,265.068047 L152.520714,255.133164 L141.483015,258.674249 L139.10136,270.134714 L130.998756,272.733164 L143.628371,218.891303 L150.375359,216.733164 Z M175.048215,208.733164 L175.048215,251.888603 L190.998756,246.687112 L190.998756,253.902691 L166.998756,261.733164 L166.998756,211.35587 L175.048215,208.733164 Z M204.998756,198.733164 L204.998756,249.110457 L196.998756,251.733164 L196.998756,201.35587 L204.998756,198.733164 Z M147.042285,232.131613 L146.880606,232.187427 L142.913252,251.499055 L151.009638,248.906807 L147.042285,232.131613 Z M236.998756,188.733164 L236.998756,195.49858 L221.048215,200.682064 L221.048215,215.913629 L234.946205,211.399183 L234.946205,218.1646 L221.048215,222.679045 L221.048215,244.113284 L212.998756,246.733164 L212.998756,196.530274 L236.998756,188.733164 Z M260.355293,180.733164 C261.956621,180.726974 263.415747,181.003933 264.732669,181.570439 C266.000129,182.19989 267.026463,183.156656 267.817853,184.45962 C268.603061,185.768879 268.998756,187.436925 268.998756,189.470053 L268.998756,216.158789 C268.998756,218.292628 268.603061,220.237633 267.817853,222.012686 C267.026463,223.787738 266.000129,225.373956 264.732669,226.783927 C263.415747,228.256843 261.956621,229.509451 260.355293,230.55434 C258.747782,231.599229 257.127906,232.392338 255.495664,232.927372 C253.869605,233.462405 252.243546,233.726775 250.642218,233.733164 C249.034707,233.739364 247.600313,233.430933 246.339035,232.801481 C245.022113,232.234975 243.971048,231.328565 243.179658,230.075957 C242.388268,228.817054 241.998756,227.12383 241.998756,224.98999 L241.998756,198.307549 C241.998756,196.268127 242.388268,194.342006 243.179658,192.522892 C243.971048,190.703777 245.022113,189.060909 246.339035,187.587993 C247.600313,186.178022 249.034707,184.956887 250.642218,183.911998 C252.243546,182.867108 253.869605,182.074 255.495664,181.538966 C257.127906,181.003933 258.747782,180.739563 260.355293,180.733164 Z M255.495664,188.777656 C254.024173,189.262334 252.744347,190.09321 251.668552,191.270284 C250.586573,192.453652 250.048675,193.920274 250.048675,195.670148 L250.048675,222.358884 C250.048675,224.108759 250.586573,225.222887 251.668552,225.70127 C252.744347,226.173359 254.024173,226.167064 255.495664,225.688681 C256.973338,225.204004 258.246981,224.373128 259.328959,223.18976 C260.404755,222.012686 260.942653,220.546064 260.942653,218.79619 L260.942653,192.107454 C260.942653,190.357579 260.404755,189.24345 259.328959,188.765067 C258.246981,188.292979 256.973338,188.292979 255.495664,188.777656 Z M303.254908,181.849578 C303.254908,184.779694 302.739821,187.443435 301.715854,189.816023 C300.679475,192.201 298.873568,194.431109 296.285723,196.518739 L304.998756,216.428654 L296.44087,219.172927 L288.913157,200.353287 L284.07879,201.901973 L284.07879,223.137565 L275.998756,225.733164 L275.998756,175.995543 L288.993834,171.826478 C298.501217,168.772468 303.254908,172.117632 303.254908,181.849578 Z M337.998756,155.733164 L337.998756,205.650023 L330.453661,208.099549 L318.178254,182.074892 L318.024272,182.124628 L318.024272,212.134428 L309.998756,214.733164 L309.998756,164.816304 L317.71015,162.317041 L329.819257,188.46604 L329.979398,188.410087 L329.979398,158.338116 L337.998756,155.733164 Z M353.998756,150.733164 L353.998756,201.104494 L345.998756,203.733164 L345.998756,153.361833 L353.998756,150.733164 Z M377.375359,143.733164 L389.998756,189.475799 L381.90237,192.068047 L379.520714,182.133164 L368.476797,185.674249 L366.095141,197.134714 L357.998756,199.733164 L370.628371,145.897505 L377.375359,143.733164 Z M288.280159,178.7584 L284.07879,180.108855 L284.07879,195.614306 L288.677335,194.139956 C290.104683,193.681545 291.23415,193.142602 292.084354,192.523127 C292.928351,191.903652 293.592378,191.191256 294.064024,190.385939 C294.486023,189.599207 294.777698,188.700968 294.939051,187.697419 C295.094197,186.69387 295.174874,185.560232 295.174874,184.302698 C295.174874,183.045165 295.094197,181.967279 294.939051,181.062846 C294.777698,180.158413 294.461199,179.433627 293.983348,178.88849 C292.984204,177.90972 291.079004,177.860162 288.280159,178.7584 Z M255.815611,54 C276.538865,62.0190241 292.197279,75.984976 302.775929,96.0029464 L317.508197,96.0111535 C320.541236,96.0111535 323,98.576877 323,101.741857 L323,125.87791 C323,129.042891 320.541236,131.608614 317.508197,131.608614 L315.044655,131.606365 C316.212933,137.326481 317.13974,143.336411 317.82492,149.637243 L313.329006,151.045315 C308.384967,103.663766 289.738632,73.5047469 257.307546,59.5708337 L256.274864,59.1345628 L256,59.0224545 L255.746403,59.1264193 C221.843202,73.2065217 202.734596,104.667897 198.325018,154.641032 L198.195894,156.161037 L198.0746,157.707908 L198.05791,157.884134 L198.005094,158.315938 C196.675855,166.959089 195.666013,177.017627 194.953712,188.140158 L190.22398,189.623229 C190.914011,178.296839 191.905287,167.992346 193.221675,159.055856 L193.43742,157.622497 L193.466741,157.366013 C194.155033,148.208804 195.31788,139.62372 196.955022,131.607719 L194.491803,131.608614 C191.458764,131.608614 189,129.042891 189,125.87791 L189,101.741857 C189,98.576877 191.458764,96.0111535 194.491803,96.0111535 L209.226219,96.0012216 C219.488703,76.5857737 234.533088,62.8615446 254.351093,54.7310125 L255.069486,54.4395736 L255.99769,54.0723068 L255.815611,54 Z M422.306156,129 L422.306156,179.363727 L414.745822,181.835182 L402.461822,155.577545 L402.307656,155.627727 L402.307656,185.906182 L394.272489,188.528182 L394.272489,138.164455 L401.993156,135.642818 L414.116822,162.019636 L414.277156,161.969455 L414.277156,131.628273 L422.306156,129 Z M374.042285,159.131613 L373.880606,159.187427 L369.913252,178.499055 L378.009638,175.906807 L374.042285,159.131613 Z M256,97 C257.331401,97 258.419717,98.4314863 258.495756,100.236498 L258.5,100.438538 L258.5,168.228 L253.5,169.795 L253.5,100.438538 C253.5,98.539486 254.619288,97 256,97 Z M242.677011,132.906977 C244.250706,132.906977 245.526437,134.138566 245.526437,135.657807 C245.526437,137.177049 244.250706,138.408638 242.677011,138.408638 C241.103317,138.408638 239.827586,137.177049 239.827586,135.657807 C239.827586,134.138566 241.103317,132.906977 242.677011,132.906977 Z M269.322989,132.906977 C270.896683,132.906977 272.172414,134.138566 272.172414,135.657807 C272.172414,137.177049 270.896683,138.408638 269.322989,138.408638 C267.749294,138.408638 266.473563,137.177049 266.473563,135.657807 C266.473563,134.138566 267.749294,132.906977 269.322989,132.906977 Z M269.322989,104.023256 C270.896683,104.023256 272.172414,105.254845 272.172414,106.774086 C272.172414,108.293328 270.896683,109.524917 269.322989,109.524917 C267.749294,109.524917 266.473563,108.293328 266.473563,106.774086 C266.473563,105.254845 267.749294,104.023256 269.322989,104.023256 Z M242.677011,104.023256 C244.250706,104.023256 245.526437,105.254845 245.526437,106.774086 C245.526437,108.293328 244.250706,109.524917 242.677011,109.524917 C241.103317,109.524917 239.827586,108.293328 239.827586,106.774086 C239.827586,105.254845 241.103317,104.023256 242.677011,104.023256 Z" id="Combined-Shape" fill="#FFFFFF" fill-rule="nonzero"></path>
    </g>
</svg>